<?xml version="1.0" encoding="utf-8"?>
<!-- Generator: Adobe Illustrator 16.0.0, SVG Export Plug-In . SVG Version: 6.00 Build 0)  -->
<!DOCTYPE svg PUBLIC "-//W3C//DTD SVG 1.1//EN" "http://www.w3.org/Graphics/SVG/1.1/DTD/svg11.dtd">
<svg version="1.1" id="图层_1" xmlns="http://www.w3.org/2000/svg" xmlns:xlink="http://www.w3.org/1999/xlink" x="0px" y="0px"
	 width="512px" height="512px" viewBox="0 0 512 512" enable-background="new 0 0 512 512" xml:space="preserve">
<image display="none" overflow="visible" opacity="0.5" enable-background="new    " width="379" height="308" xlink:href="CACEEF4E.png"  transform="matrix(1 0 0 1 90.4668 89.1904)">
</image>
<path display="none" fill="#D3D1B7" d="M223.306,143.161c0,0-57.442-89.45-133.306-56.271c0,0,18.563-85.682,116.754-24.255
	c0,0-41.608-12.496-60.26-9.027C146.494,53.607,215.286,71.602,223.306,143.161z"/>
<path stroke="#000000" stroke-width="0.25" stroke-miterlimit="10" d="M90.896,85.77c0,0,25.466-34.434,75.324-10.222
	c0,0,22.599,11.837,38.201,21.88c0,0,11.301,8.43,15.963,4.304c4.662-4.125,5.56-9.864-11.299-21.164
	C192.227,69.27,172.14,54.922,144.7,53.667C117.26,52.412,96.993,71.063,90.896,85.77z"/>
<g display="none">
	<path display="inline" fill="#A6A698" d="M149.543,120.025c0,0,58.959-3.273,67.074,29.413c0,0,2.78,14.527-33.538,22.778
		c-34.19,7.767-57.838-4.215-69.944-9.193c-10.088-1.568-29.233,8.116-38.379,16.725c-9.147,8.608,15.782-15.782,21.522-19.549
		c5.739-3.767-7.892,0.897-17.039,8.788c-9.146,7.891,8.25-11.12,13.631-12.555c0,0-8.609-13.675-10.403-23.539
		c0,0,6.384,16.454,16.141,19.953c10.492,1.03,15.604-10.223,20.625-15.604C124.256,131.862,130.219,123.612,149.543,120.025z"/>
	<path display="inline" fill="#A6A698" d="M116.768,150.71c0,0,33.358-48.889,86.4-10.24c0,0,18.263,16.433-22.418,23.854
		C180.749,164.323,128.604,172.296,116.768,150.71z"/>
</g>
<path stroke="#000000" stroke-width="0.25" stroke-miterlimit="10" d="M123.896,149.079c0,0,36.766-36.049,82.32-2.87
	c0,0,9.325,12.554-38.021,15.245C168.195,161.454,140.935,161.589,123.896,149.079z"/>
<path display="none" fill="#E0DECB" d="M234.462,135.089c0,0-2.467,48.872-20.939,72.725
	c-18.473,23.854-28.044,35.646-17.643,49.634c10.403,13.987-8.731-8.092,7.051-24.233c15.783-16.142,25.867-32.113,19.001,5.189
	C215.065,275.708,255,273.186,255,273.186v-9.146c0,0-27.439,4.067-23.135-25.107C239.398,200.014,238.139,145.49,234.462,135.089z"
	/>
<path d="M223.927,266.387c-0.562,1.844-4.534,2.272-8.875,0.954c-4.342-1.319-7.406-3.882-6.848-5.726
	c0.563-1.844,4.533-2.27,8.874-0.951C221.42,261.98,224.487,264.543,223.927,266.387z"/>
<path d="M161.021,320h66.717L255,285.381v-6.275c0,0-18.078-0.472-26.723-5.883c0,0-12.39,18.077-26.006,25.434l-48.513-0.36
	c0,0-21.68-32.896-25.064-41.606l-18.809-1.253c0,0,23.147,52.373,39.467,62.055C149.353,317.488,155.103,320,161.021,320z"/>
<path display="none" fill="#D3D1B7" d="M183.484,232.295c0,0-67.838,44.835-97.654,4.438c0,0,2.737,27.666,24.975,64.251
	c22.238,36.586,57.032,79.271,68.151,89.674c0,0-36.945-50.756-40.532-65.641c0,0,17.576,18.648,40.532,20.803
	c0,0-50.396-13.272-75.147-90.928c0,0,45.734,14.708,85.01-15.424C188.819,239.468,191.062,230.859,183.484,232.295z"/>
<path d="M255,359h-22.958c0,0,9.954,10.359,11.836,16.008c1.884,5.65,0.718,5.313-4.931,24.686c0,0,2.052,48.625,16.052,72.837
	L255,359L255,359z"/>
<path display="none" fill="#D3D1B7" d="M288.104,143.161c0,0,57.442-89.45,133.306-56.271c0,0-18.563-85.682-116.753-24.255
	c0,0,41.605-12.496,60.262-9.027C364.917,53.607,296.125,71.602,288.104,143.161z"/>
<path stroke="#000000" stroke-width="0.25" stroke-miterlimit="10" d="M420.513,85.77c0,0-25.468-34.434-75.322-10.222
	c0,0-22.6,11.837-38.201,21.88c0,0-11.302,8.43-15.964,4.304c-4.661-4.125-5.562-9.864,11.299-21.164
	c16.858-11.298,36.945-25.646,64.389-26.901C394.151,52.412,414.416,71.063,420.513,85.77z"/>
<g display="none">
	<path display="inline" fill="#A6A698" d="M361.866,120.025c0,0-58.958-3.273-67.077,29.413c0,0-2.777,14.527,33.54,22.778
		c34.189,7.767,57.839-4.215,69.946-9.193c10.087-1.568,29.229,8.116,38.377,16.725c9.146,8.608-15.782-15.782-21.521-19.549
		c-5.741-3.767,7.895,0.897,17.038,8.788c9.147,7.891-8.251-11.12-13.631-12.555c0,0,8.611-13.675,10.403-23.539
		c0,0-6.386,16.454-16.144,19.953c-10.492,1.03-15.603-10.223-20.626-15.604C387.152,131.862,381.19,123.612,361.866,120.025z"/>
	<path display="inline" fill="#A6A698" d="M394.644,150.71c0,0-33.357-48.889-86.4-10.24c0,0-18.265,16.433,22.419,23.854
		C330.66,164.323,382.805,172.296,394.644,150.71z"/>
</g>
<path stroke="#000000" stroke-width="0.25" stroke-miterlimit="10" d="M387.514,149.079c0,0-36.768-36.049-82.317-2.87
	c0,0-9.328,12.554,38.019,15.245C343.213,161.454,370.474,161.589,387.514,149.079z"/>
<path display="none" fill="#E0DECB" d="M276.947,135.089c0,0,2.466,48.872,20.938,72.725c18.474,23.854,28.044,35.646,17.646,49.634
	c-10.402,13.987,8.729-8.092-7.055-24.233c-15.78-16.142-26.568-32.113-19.704,5.189C295.639,275.708,255,273.186,255,273.186
	v-9.146c0,0,28.145,4.067,23.841-25.107C271.309,200.014,273.27,145.49,276.947,135.089z"/>
<path d="M287.484,266.387c0.56,1.844,4.531,2.272,8.873,0.954c4.342-1.319,7.405-3.882,6.849-5.726
	c-0.563-1.844-4.533-2.27-8.874-0.951C289.99,261.98,286.924,264.543,287.484,266.387z"/>
<path d="M350.389,320h-66.716L255,285.381v-6.275c0,0,18.782-0.472,27.428-5.883c0,0,12.742,18.077,26.357,25.434l48.688-0.36
	c0,0,21.771-32.896,25.151-41.606l18.854-1.253c0,0-23.12,52.373-39.443,62.055C362.034,317.488,356.307,320,350.389,320z"/>
<path display="none" fill="#D3D1B7" d="M327.927,232.295c0,0,67.837,44.835,97.652,4.438c0,0-2.735,27.666-24.974,64.251
	c-22.239,36.584-57.032,79.271-68.152,89.674c0,0,36.945-50.756,40.534-65.641c0,0-17.579,18.648-40.534,20.803
	c0,0,50.396-13.272,75.146-90.928c0,0-45.73,14.708-85.008-15.424C322.591,239.468,320.347,230.859,327.927,232.295z"/>
<path d="M254,359h25.367c0,0-9.953,10.359-11.836,16.008c-1.885,5.65-1.424,5.313,4.227,24.686c0,0-1.758,48.625-16.758,72.837
	L254,359z"/>
</svg>
